<?xml version="1.0" encoding="UTF-8" standalone="no"?>
<!DOCTYPE svg PUBLIC "-//W3C//DTD SVG 1.1//EN" "http://www.w3.org/Graphics/SVG/1.1/DTD/svg11.dtd">
<!-- Created with Vectornator (http://vectornator.io/) -->
<svg height="100%" stroke-miterlimit="10" style="fill-rule:nonzero;clip-rule:evenodd;stroke-linecap:round;stroke-linejoin:round;" version="1.1" viewBox="0 0 1020.9 270.817" width="100%" xml:space="preserve" xmlns="http://www.w3.org/2000/svg" xmlns:vectornator="http://vectornator.io" xmlns:xlink="http://www.w3.org/1999/xlink">
<defs/>
<clipPath id="ArtboardFrame">
<rect height="270.817" width="1020.9" x="0" y="0"/>
</clipPath>
<g clip-path="url(#ArtboardFrame)" id="Layer-1" vectornator:layerName="Layer 1">
<g opacity="1">
<path d="M255.068 91.2128C270.119 77.6539 284.521 64.1436 299.553 51.3744C314.13 38.9922 329.201 27.1707 344.447 15.6209C346.882 13.7765 352.16 13.1759 354.758 14.5611C360.793 17.7785 361.663 24.2172 360.474 30.4993C356.708 50.3835 348.133 68.3114 336.616 84.7143C330.544 93.3614 323.104 101.053 316.218 109.122C301.475 126.398 287.188 144.099 271.774 160.757C257.632 176.041 244.031 192.133 224.972 202.073C219.481 204.937 216.506 204.859 214.016 198.726C209.437 187.448 204.183 176.444 199.558 165.183C196.656 158.118 194.03 156.962 187.92 161.373C162.645 179.618 138.054 198.905 111.969 215.904C90.5164 229.883 67.3254 241.2 44.851 253.599C43.2804 254.466 41.0471 255.248 39.5016 254.79C36.9684 254.039 34.7469 252.236 32.394 250.877C33.9838 249.253 35.2922 247.087 37.2086 246.09C50.899 238.965 64.8035 232.249 78.4515 225.046C85.6295 221.258 91.9672 215.385 99.4916 212.845C116.35 207.155 127.377 193.633 141.256 184.014C156.008 173.789 170.37 163.002 184.884 152.434C190.185 148.574 191.228 143.55 188.818 137.593C186.492 131.843 183.778 126.188 182.173 120.238C181.498 117.736 182.346 113.046 184.065 112.053C187.457 110.092 190.313 112.632 191.507 116.417C192.893 120.813 194.066 125.299 195.786 129.563C197.795 134.543 201.902 137.71 207.585 132.737C223.277 119.007 238.99 105.301 255.068 91.2128M292.74 122.171C301.692 111.229 310.846 100.446 319.548 89.3086C332.204 73.1116 342.527 55.5822 347.908 35.5388C348.44 33.5563 347.511 31.1816 347.261 28.9889C344.893 29.3245 341.859 28.834 340.258 30.1228C323.068 43.9614 305.976 57.931 289.144 72.203C283.105 77.3242 278.153 83.7198 272.165 88.9123C252.129 106.288 231.906 123.451 211.62 140.536C206.878 144.53 207.533 149.048 211.179 152.147C216.068 156.303 222.143 159.055 227.675 162.466C230.258 164.059 232.76 165.784 235.299 167.45C232.414 168.768 229.562 170.171 226.621 171.353C225.765 171.696 224.655 171.396 223.662 171.407C215.426 171.496 214.678 172.823 217.069 180.856C219.368 188.584 224.077 192.778 232.055 185.865C234.584 183.673 237.549 181.917 239.806 179.488C257.272 160.696 274.614 141.789 292.74 122.171Z" fill="#000000" fill-rule="nonzero" opacity="1" stroke="#020201" stroke-linecap="butt" stroke-linejoin="round" stroke-width="3.19287"/>
<path d="M4.04691 308.665C-11.4116 309.162-26.1233 309.688-40.8377 310.121C-42.7342 310.177-44.645 309.746-46.5491 309.541C-44.6399 307.757-43.0086 305.101-40.7593 304.384C-36.9654 303.175-32.7915 302.92-28.7566 302.746C-14.2982 302.123 0.174719 301.828 14.6316 301.174C33.868 300.305 53.0983 299.285 72.324 298.2C88.0797 297.311 103.82 296.141 119.576 295.267C131.297 294.617 143.033 294.26 154.761 293.742C176.976 292.76 199.19 291.756 221.404 290.761C243.619 289.767 265.834 288.789 288.048 287.772C309.268 286.801 330.491 285.846 351.707 284.776C369.698 283.868 387.677 282.676 405.671 281.841C429.869 280.719 454.078 279.845 478.28 278.814C488.272 278.388 498.258 277.831 508.246 277.334C528.223 276.339 548.2 275.366 568.175 274.34C576.675 273.903 585.164 273.254 593.666 272.877C617.37 271.827 641.078 270.877 664.784 269.871C676.017 269.394 687.246 268.853 698.479 268.388C722.931 267.375 747.387 266.466 771.835 265.375C791.568 264.495 811.29 263.375 831.02 262.424C852.487 261.388 873.955 260.393 895.426 259.443C908.146 258.879 920.876 258.516 933.594 257.904C939.862 257.603 946.108 256.825 952.376 256.554C953.524 256.505 954.732 257.859 955.912 258.565C955.061 259.848 954.478 261.559 953.29 262.306C951.787 263.251 949.806 263.774 948.006 263.849C933.546 264.449 919.081 264.927 904.616 265.391C888.164 265.919 871.704 266.24 855.259 266.93C835.524 267.757 815.805 268.961 796.072 269.853C772.121 270.936 748.163 271.867 724.208 272.857C711.982 273.362 699.754 273.808 687.53 274.36C666.309 275.319 645.091 276.362 623.87 277.328C601.408 278.35 578.941 279.264 556.482 280.336C537.495 281.242 518.519 282.347 499.534 283.291C478.565 284.333 457.592 285.286 436.621 286.287C415.898 287.276 395.176 288.289 374.453 289.266C352.985 290.278 331.515 291.245 310.048 292.257C289.324 293.234 268.601 294.221 247.88 295.247C239.047 295.685 230.223 296.339 221.387 296.705C207.176 297.293 192.952 297.607 178.744 298.25C159.259 299.131 139.78 300.147 120.305 301.225C104.053 302.124 87.8138 303.259 71.5622 304.172C52.5841 305.239 33.5963 306.132 14.6193 307.217C11.327 307.405 8.06752 308.168 4.04691 308.665Z" fill="#000000" fill-rule="nonzero" opacity="0" stroke="#020201" stroke-linecap="butt" stroke-linejoin="round" stroke-width="3.19287"/>
<path d="M761.585 65.1037C743.707 78.407 726.309 91.4879 708.645 104.198C700.893 109.776 691.938 113.831 684.759 120.007C679.138 124.843 674.973 131.605 670.942 138.004C664.153 148.781 658.158 160.056 651.501 170.921C645.87 180.11 643.038 180.125 637.427 171.383C634.937 167.501 632.725 163.411 630.756 159.241C629.966 157.569 629.424 154.115 630.064 153.752C631.848 152.738 634.591 152.11 636.457 152.76C646.563 156.281 646.509 156.429 653.054 146.844C653.328 146.443 653.811 146.175 654.051 145.761C655.446 143.348 656.798 140.909 658.165 138.479C655.092 139.134 651.758 139.236 648.994 140.544C639.385 145.089 633.464 143.014 632.268 134C632.048 132.341 632.75 129.824 633.946 128.92C635.14 128.017 638.288 127.83 639.202 128.73C645.086 134.522 649.964 129.86 654.545 127.221C668.391 119.245 678.696 107.819 687.537 94.4296C703.166 70.76 721.431 49.0846 745.002 32.9071C752.571 27.7122 762.11 24.8315 771.172 22.6654C774.421 21.8887 780.024 25.4408 782.582 28.6088C786.262 33.168 785.387 39.1298 781.406 43.6833C775.121 50.8716 768.46 57.7317 761.585 65.1037M727.644 78.1582C740.003 67.7884 752.488 57.5617 764.588 46.8977C766.448 45.2578 766.535 41.6048 767.442 38.8828C764.398 38.7681 760.851 37.5914 758.411 38.7483C752.353 41.6197 745.889 44.6335 741.222 49.2436C728.777 61.5354 717.168 74.6766 705.325 87.5702C704.657 88.2977 704.315 90.3982 704.796 90.8744C705.679 91.7482 707.506 92.5383 708.549 92.1907C710.48 91.5472 712.205 90.1594 713.881 88.9028C718.258 85.6215 722.564 82.2436 727.644 78.1582Z" fill="#000000" fill-rule="nonzero" opacity="1" stroke="#020201" stroke-linecap="butt" stroke-linejoin="round" stroke-width="3.19287"/>
<path d="M933.533 43.0974C934.466 45.0867 935.39 47.3908 936.334 47.3989C941.92 47.4468 947.509 46.9376 953.1 46.6611C965.006 46.072 977.265 43.9722 986.843 53.9711C987.696 54.8616 988.638 57.1476 988.355 57.3874C987.176 58.386 985.217 59.7623 984.126 59.3725C966.454 53.063 948.519 58.51 930.76 58.3635C922.224 58.2931 914.833 63.5692 909.323 70.8842C904.107 77.8081 898.09 84.1224 892.557 90.8135C876.341 110.422 860.177 130.073 844.022 149.731C835.04 160.659 826.126 171.643 817.151 182.577C816.209 183.724 815.193 185.38 813.977 185.623C810.511 186.315 806.923 186.398 803.384 186.721C803.5 183.606 802.523 179.824 803.939 177.501C808.105 170.664 812.965 164.2 818.017 157.965C828.01 145.631 838.198 133.448 848.551 121.414C852.566 116.746 857.461 112.843 861.582 108.256C872.772 95.8024 883.778 83.1829 894.796 70.5769C895.48 69.7942 896.102 67.7246 895.986 67.6615C894.384 66.7888 892.465 65.3 890.973 65.6153C880.511 67.8264 870.124 70.3999 859.731 72.9281C858.64 73.1934 857.522 74.5157 856.657 74.3144C854.218 73.7469 851.397 73.1555 849.751 71.5337C848.906 70.7021 849.544 66.5647 850.729 65.7934C855.34 62.7942 860.199 59.2239 865.403 58.2791C878.058 55.9816 890.995 55.2821 903.735 53.3776C907.211 52.858 911.225 51.1296 913.566 48.6236C926.854 34.3956 939.664 19.7228 952.762 5.31446C954.656 3.23033 957.054 1.42734 959.554 0.155096C960.595-0.374404 962.701 0.555219 963.942 1.38798C964.392 1.68985 964.159 3.97957 963.517 4.79322C953.593 17.3679 943.549 29.8488 933.533 43.0974Z" fill="#000000" fill-rule="nonzero" opacity="1" stroke="#020201" stroke-linecap="butt" stroke-linejoin="round" stroke-width="3.19287"/>
<path d="M466.925 165.81C458.58 176.249 453.478 188.721 440.966 194.962C435.534 197.671 431.439 196.353 427.683 192.869C410.819 177.224 400.157 157.954 394.981 135.609C394.653 134.193 394.997 132.633 394.927 131.145C394.717 126.706 394.94 122.353 400.828 122.241C406.115 122.14 405.294 127.053 407.047 130.142C412.63 139.978 411.026 151.834 416.074 161.45C419.885 168.71 425.674 175.03 431.117 181.305C435.42 186.266 439.883 182.837 442.675 179.403C453.336 166.288 463.874 153.042 473.811 139.374C485.27 123.61 495.59 107.01 507.251 91.4042C517.866 77.1965 529.232 63.497 540.985 50.2088C549.969 40.0515 559.998 30.8075 569.715 21.3135C574.383 16.7523 579.101 12.1146 584.432 8.43074C586.242 7.18004 591.092 7.70114 592.605 9.27962C594.736 11.5043 596.835 16.2079 595.855 18.5637C589.941 32.7695 583.193 46.6312 576.563 60.5309C575.928 61.8618 574.182 62.6627 572.951 63.7096C572.297 61.9921 570.765 60.0497 571.137 58.595C572.966 51.4502 575.178 44.3934 577.527 37.3971C578.323 35.0266 580.124 33.0078 581.07 30.6682C581.627 29.2893 581.407 27.5962 581.537 26.0445C579.839 26.1803 577.453 25.6387 576.551 26.5564C567.238 36.0232 557.537 45.2142 549.17 55.4804C535.973 71.671 523.45 88.4328 511.136 105.314C497.965 123.37 485.398 141.867 472.476 160.107C471.061 162.104 469.039 163.671 466.925 165.81Z" fill="#000000" fill-rule="nonzero" opacity="1" stroke="#020201" stroke-linecap="butt" stroke-linejoin="round" stroke-width="3.19287"/>
<path d="M796.273 122.171C787.323 133.359 779.103 144.566 769.207 154.018C760.193 162.628 749.382 169.362 739.301 176.84C738.04 177.776 736.375 178.802 734.945 178.737C732.179 178.612 729.447 177.74 726.702 177.177C727.562 174.955 727.988 172.412 729.353 170.562C739.755 156.46 750.191 142.376 761.029 128.612C762.628 126.582 767.128 124.597 769.048 125.433C779.29 129.895 782.01 121.769 785.685 115.941C787.958 112.335 788.458 107.652 790.443 103.808C791.58 101.604 794.095 100.112 795.989 98.2996C797.576 100.668 800.684 103.201 800.45 105.374C799.865 110.811 797.765 116.085 796.273 122.171Z" fill="#000000" fill-rule="nonzero" opacity="1" stroke="#020201" stroke-linecap="butt" stroke-linejoin="round" stroke-width="3.19287"/>
<path d="M538.539 149.399C548.523 139.415 558.099 129.769 567.778 120.226C569.442 118.586 571.362 116.833 573.492 116.145C575.627 115.455 578.172 116.032 580.537 116.054C580.259 117.923 580.65 120.392 579.597 121.565C571.939 130.098 563.972 138.353 556.138 146.729C546.647 156.875 537.182 167.045 527.738 177.234C526.781 178.266 526.267 180.103 525.157 180.517C522.583 181.477 519.77 181.794 517.054 182.371C517.081 179.509 515.935 175.727 517.336 173.943C523.895 165.585 531.156 157.777 538.539 149.399Z" fill="#000000" fill-rule="nonzero" opacity="1" stroke="#020201" stroke-linecap="butt" stroke-linejoin="round" stroke-width="3.19287"/>
<path d="M895.115 150.891C892.034 153.005 889.442 155.005 886.536 156.303C885.813 156.626 882.86 154.265 883.003 153.845C883.96 151.045 885.292 148.319 886.867 145.798C888.371 143.392 890.16 141.115 892.1 139.04C900.981 129.541 909.957 120.131 918.906 110.695C919.759 109.795 920.511 108.466 921.559 108.144C925.88 106.815 930.296 105.798 934.678 104.667C932.984 108.581 932.183 113.334 929.438 116.264C918.449 127.989 906.857 139.149 895.115 150.891Z" fill="#000000" fill-rule="nonzero" opacity="1" stroke="#020201" stroke-linecap="butt" stroke-linejoin="round" stroke-width="3.19287"/>
<path d="M617.612 62.1198C616.244 55.988 615.007 50.2548 614.398 44.4555C614.205 42.6281 615.397 39.2192 616.476 38.9905C618.777 38.5027 622.397 38.7656 623.711 40.2667C626.191 43.0996 628.287 46.8657 628.96 50.5344C629.837 55.3099 629.425 60.3869 629.057 65.296C628.9 67.3951 627.457 69.3979 626.599 71.4445C624.473 70.1262 622.083 69.0855 620.314 67.3942C619.093 66.2258 618.731 64.1584 617.612 62.1198Z" fill="#000000" fill-rule="nonzero" opacity="1" stroke="#020201" stroke-linecap="butt" stroke-linejoin="round" stroke-width="3.19287"/>
<path d="M321.46 189.682C321.335 193.069 321.012 196.125 320.299 199.087C319.305 203.215 316.333 204.687 313.798 201.121C310.372 196.305 307.528 190.841 305.634 185.248C304.291 181.283 309.638 177.683 313.177 180.205C316.36 182.473 318.491 186.216 321.46 189.682Z" fill="#000000" fill-rule="nonzero" opacity="1" stroke="#020201" stroke-linecap="butt" stroke-linejoin="round" stroke-width="3.19287"/>
<path d="M958.896 71.4445C961.638 67.9701 964.608 62.8216 967.071 63.0533C971.267 63.4479 975.486 67.2184 973.735 72.9669C972.605 76.6763 970.56 80.752 965.732 78.708C963.02 77.5598 961.147 74.4284 958.896 71.4445Z" fill="#000000" fill-rule="nonzero" opacity="1" stroke="#020201" stroke-linecap="butt" stroke-linejoin="round" stroke-width="3.19287"/>
</g>
</g>
</svg>
