<?xml version="1.0" encoding="UTF-8" standalone="no"?>
<!DOCTYPE svg PUBLIC "-//W3C//DTD SVG 1.1//EN" "http://www.w3.org/Graphics/SVG/1.1/DTD/svg11.dtd">
<!-- Created with Vectornator (http://vectornator.io/) -->
<svg height="100%" stroke-miterlimit="10" style="fill-rule:nonzero;clip-rule:evenodd;stroke-linecap:round;stroke-linejoin:round;" version="1.1" viewBox="0 0 512 438.604" width="100%" xml:space="preserve" xmlns="http://www.w3.org/2000/svg" xmlns:vectornator="http://vectornator.io" xmlns:xlink="http://www.w3.org/1999/xlink">
<defs/>
<clipPath id="ArtboardFrame">
<rect height="438.604" width="512" x="0" y="0"/>
</clipPath>
<g clip-path="url(#ArtboardFrame)" id="Layer-1" vectornator:layerName="Layer 1">
<path d="M256-5.68434e-14C134.54-5.68434e-14 36.698 97.8424 36.698 219.302C36.698 340.762 134.54 438.604 256 438.604C377.46 438.604 475.302 340.762 475.302 219.302C475.302 97.8424 377.46-5.68434e-14 256-5.68434e-14ZM345.408 322.205C342.034 322.205 338.66 320.518 335.286 318.831C303.234 300.275 264.435 290.153 222.261 290.153C198.644 290.153 175.027 293.527 153.097 298.588C149.723 298.588 144.662 300.275 142.975 300.275C134.54 300.275 129.48 293.527 129.48 286.78C129.48 278.345 134.54 273.284 141.288 271.597C168.279 264.849 195.27 261.475 223.948 261.475C271.182 261.475 315.043 273.284 352.155 295.214C357.216 298.588 360.59 301.962 360.59 310.397C358.903 317.144 352.155 322.205 345.408 322.205ZM369.025 264.849C363.964 264.849 360.59 263.162 357.216 261.475C321.791 239.545 272.869 226.05 217.2 226.05C190.209 226.05 164.905 229.424 146.349 234.484C141.288 236.171 139.601 236.171 136.227 236.171C126.106 236.171 119.358 227.737 119.358 219.302C119.358 209.18 124.419 204.12 132.854 200.746C158.158 193.998 183.462 188.937 218.887 188.937C276.243 188.937 331.912 202.433 375.773 229.424C382.52 232.797 385.894 239.545 385.894 246.293C385.894 256.415 379.146 264.849 369.025 264.849ZM396.016 197.372C390.955 197.372 389.268 195.685 384.207 193.998C343.721 170.381 282.991 156.885 223.948 156.885C193.583 156.885 163.218 160.259 136.227 167.007C132.853 167.007 129.48 168.694 124.419 168.694C112.61 170.381 104.176 160.259 104.176 148.451C104.176 136.642 110.923 129.894 119.358 128.207C151.41 118.086 185.149 114.712 223.948 114.712C288.052 114.712 355.529 128.207 406.138 156.885C412.885 160.259 417.946 167.007 417.946 177.129C416.259 188.937 407.824 197.372 396.016 197.372Z" fill="#000000" fill-rule="nonzero" opacity="1" stroke="none"/>
</g>
</svg>
