<?xml version="1.0" encoding="UTF-8" standalone="no"?>
<!DOCTYPE svg PUBLIC "-//W3C//DTD SVG 1.1//EN" "http://www.w3.org/Graphics/SVG/1.1/DTD/svg11.dtd">
<!-- Created with Vectornator (http://vectornator.io/) -->
<svg height="100%" stroke-miterlimit="10" style="fill-rule:nonzero;clip-rule:evenodd;stroke-linecap:round;stroke-linejoin:round;" version="1.1" viewBox="0 0 512 438.604" width="100%" xml:space="preserve" xmlns="http://www.w3.org/2000/svg" xmlns:vectornator="http://vectornator.io" xmlns:xlink="http://www.w3.org/1999/xlink">
<defs/>
<g id="Layer-1" vectornator:layerName="Layer 1">
<path d="M501.299 70.4636C495.411 48.4476 478.054 31.0908 456.038 25.2028C416.102 14.502 256 14.502 256 14.502C256 14.502 95.8976 14.502 55.9616 25.2028C33.9456 31.0908 16.5888 48.4476 10.7008 70.4636C0 110.4 0 219.302 0 219.302C0 219.302 0 328.204 10.7008 368.14C16.5888 390.156 33.9456 407.513 55.9616 413.401C95.8976 424.102 256 424.102 256 424.102C256 424.102 416.102 424.102 456.038 413.401C478.08 407.513 495.411 390.156 501.299 368.14C512 328.204 512 219.302 512 219.302C512 219.302 512 110.4 501.299 70.4636ZM204.8 285.811L204.8 152.793C204.8 142.937 215.475 136.793 224 141.708L339.2 208.217C347.725 213.132 347.725 225.472 339.2 230.387L224 296.896C215.475 301.836 204.8 295.667 204.8 285.811Z" fill="#000000" fill-rule="nonzero" opacity="1" stroke="none"/>
</g>
</svg>
